<?xml version="1.0" standalone="no"?><!DOCTYPE svg PUBLIC "-//W3C//DTD SVG 1.1//EN" "http://www.w3.org/Graphics/SVG/1.1/DTD/svg11.dtd"><svg t="1541406975762" class="icon" style="" viewBox="0 0 1024 1024" version="1.1" xmlns="http://www.w3.org/2000/svg" p-id="7035" xmlns:xlink="http://www.w3.org/1999/xlink" width="200" height="200"><defs><style type="text/css"></style></defs><path d="M103.8336 985.1904c-56.0128 0-101.4784-45.568-101.4784-101.4784V141.4144C2.3552 85.4016 47.9232 39.936 103.8336 39.936h336.384c16.896 0 30.6176 13.7216 30.6176 30.72 0 16.896-13.7216 30.72-30.6176 30.72H108.8512c-24.9856 0-45.2608 20.2752-45.2608 45.1584V878.592c0 24.8832 20.2752 45.1584 45.2608 45.1584h758.8864c24.8832 0 45.1584-20.2752 45.1584-45.1584V587.4688c0-16.9984 13.824-30.72 30.72-30.72 16.7936 0 30.6176 13.7216 30.72 30.6176V883.712c0 56.0128-45.568 101.4784-101.5808 101.4784H103.8336z" fill="#A5A5A5" p-id="7036"></path><path d="M193.3312 733.2864c2.4576-32.5632 14.0288-137.5232 64.7168-241.3568 35.5328-72.9088 83.0464-130.9696 141.312-172.544 72.8064-52.0192 162.6112-78.336 266.9568-78.336h2.56V88.2688c0-8.0896 7.3728-14.1312 13.824-14.1312 2.8672 0 5.3248 1.024 7.3728 3.1744l0.1024 0.1024L1006.7968 323.584h0.1024c8.2944 5.5296 13.312 14.9504 13.312 25.088s-4.9152 19.5584-13.312 25.088h-0.1024L690.2784 620.1344l-0.1024 0.1024c-2.048 2.048-4.608 3.1744-7.3728 3.1744-6.5536 0-13.824-6.0416-13.824-14.1312V443.6992h-2.56c-255.5904 0-350.6176 85.504-473.088 289.5872z" fill="#A5A5A5" p-id="7037"></path></svg>