<?xml version="1.0" standalone="no"?><!DOCTYPE svg PUBLIC "-//W3C//DTD SVG 1.1//EN" "http://www.w3.org/Graphics/SVG/1.1/DTD/svg11.dtd"><svg t="1541406747385" class="icon" style="" viewBox="0 0 1609 1024" version="1.1" xmlns="http://www.w3.org/2000/svg" p-id="5029" xmlns:xlink="http://www.w3.org/1999/xlink" width="314.2578125" height="200"><defs><style type="text/css"></style></defs><path d="M584.895855 512.024136a220.442179 220.442179 0 0 0 64.36268 155.348105 220.222761 220.222761 0 0 0 155.274966 64.36268 220.149622 220.149622 0 0 0 155.274965-64.36268A220.36904 220.36904 0 0 0 1024.171146 512.024136a220.2959 220.2959 0 0 0-64.36268-155.348105A220.222761 220.222761 0 0 0 804.533501 292.313351a220.222761 220.222761 0 0 0-155.274966 64.36268A220.149622 220.149622 0 0 0 584.895855 512.024136z m1010.05524-53.099211s-0.950812-20.917871-194.550828-201.864769C1123.494464 17.60173 876.795237-16.773792 693.361599 5.899425 509.854821 28.572642 371.767617 127.530262 360.723566 133.673973 273.61453 182.165401 27.500418 423.306033 12.799397 453.439469-22.161241 525.18923 25.598793 597.085269 25.598793 597.085269S422.745785 1024 783.61563 1024c360.796705 0 532.016062-155.055547 604.424077-211.519171 72.408015-56.463624 161.418676-158.931936 206.838249-219.710785 31.888782-68.165929 0-133.845119 0-133.845119zM804.533501 880.866176a368.768901 368.768901 0 1 1 0-737.610941 368.768901 368.768901 0 0 1 0 737.610941z" p-id="5030" fill="#A2A6A6"></path></svg>